<svg xmlns="http://www.w3.org/2000/svg" xmlns:xlink="http://www.w3.org/1999/xlink" id="Layer_1" data-name="Layer 1" viewBox="0 0 1825.66 1825.66"><defs><style>      .cls-1 {        fill: url(#linear-gradient);      }      .cls-1, .cls-2 {        stroke-width: 0px;      }      .cls-3 {        fill: none;        stroke: url(#linear-gradient-2);        stroke-miterlimit: 10;        stroke-width: 34.56px;      }      .cls-2 {        fill: #fcfcfc;      }    </style><linearGradient id="linear-gradient" x1="1149.02" y1="576.27" x2="678.63" y2="1250.5" gradientTransform="translate(0 1826.21) scale(1 -1)" gradientUnits="userSpaceOnUse"><stop offset="0" stop-color="#047ada"></stop><stop offset="1" stop-color="#0fc6a2"></stop></linearGradient><linearGradient id="linear-gradient-2" x1="1314.97" y1="1487.81" x2="512.68" y2="337.86" gradientTransform="matrix(1,0,0,1,0,0)" xlink:href="#linear-gradient"></linearGradient></defs><path class="cls-2" d="m1208.52,662.23c17.76,0,33.87,7.21,45.55,18.83,11.68,11.62,18.94,27.7,18.94,45.34v372.84c0,17.67-7.26,33.72-18.94,45.34-11.68,11.62-27.83,18.83-45.55,18.83l-589.4.03c-17.76,0-33.87-7.21-45.55-18.83-11.68-11.62-18.94-27.7-18.94-45.34v-372.84c0-17.67,7.26-33.72,18.94-45.34,11.68-11.65,27.79-18.86,45.55-18.86h589.4Zm-243.21,299.24c-14.25,11.81-32.8,17.8-51.2,17.9-18.43.1-36.96-5.74-51.12-17.49l-34.82-28.88-230.68,191.35c5.83,4.98,13.4,8.03,21.63,8.03h589.39c8.26-.03,15.86-3.07,21.72-8.11l-230.57-191.26-34.36,28.47Zm-379.43,132.24l218-180.87-218-180.87v361.74Zm438.06-180.87l217.82,180.71v-361.41l-217.82,180.71Zm-404.81-219.51c-8.23,0-15.81,3.02-21.63,7.99l240.36,199.39.44.34,44.59,36.99c8.36,6.93,19.67,10.36,31.1,10.33,11.49-.07,22.89-3.62,31.44-10.7l44.1-36.61.42-.34,240.29-199.32c-5.86-5.04-13.45-8.09-21.72-8.09l-589.39.03Z"></path><path class="cls-1" d="m1208.52,662.23c17.76,0,33.87,7.21,45.55,18.83,11.68,11.62,18.94,27.7,18.94,45.34v372.84c0,17.67-7.26,33.72-18.94,45.34-11.68,11.62-27.83,18.83-45.55,18.83l-589.4.03c-17.76,0-33.87-7.21-45.55-18.83-11.68-11.62-18.94-27.7-18.94-45.34v-372.84c0-17.67,7.26-33.72,18.94-45.34,11.68-11.65,27.79-18.86,45.55-18.86h589.4Zm-243.21,299.24c-14.25,11.81-32.8,17.8-51.2,17.9-18.43.1-36.96-5.74-51.12-17.49l-34.82-28.88-230.68,191.35c5.83,4.98,13.4,8.03,21.63,8.03h589.39c8.26-.03,15.86-3.07,21.72-8.11l-230.57-191.26-34.36,28.47Zm-379.43,132.24l218-180.87-218-180.87v361.74Zm438.06-180.87l217.82,180.71v-361.41l-217.82,180.71Zm-404.81-219.51c-8.23,0-15.81,3.02-21.63,7.99l240.36,199.39.44.34,44.59,36.99c8.36,6.93,19.67,10.36,31.1,10.33,11.49-.07,22.89-3.62,31.44-10.7l44.1-36.61.42-.34,240.29-199.32c-5.86-5.04-13.45-8.09-21.72-8.09l-589.39.03Z"></path><circle class="cls-3" cx="913.82" cy="912.83" r="683.74"></circle></svg>