<svg xmlns="http://www.w3.org/2000/svg" xmlns:xlink="http://www.w3.org/1999/xlink" id="Layer_1" data-name="Layer 1" viewBox="0 0 1825.66 1825.66"><defs><style>      .cls-1 {        fill: #fff;      }      .cls-1, .cls-2 {        stroke-width: 0px;      }      .cls-2 {        fill: url(#linear-gradient-2);      }      .cls-3 {        fill: none;        stroke: url(#linear-gradient);        stroke-miterlimit: 10;        stroke-width: 34.56px;      }    </style><linearGradient id="linear-gradient" x1="1314.97" y1="1487.81" x2="512.68" y2="337.86" gradientUnits="userSpaceOnUse"><stop offset="0" stop-color="#047ada"></stop><stop offset="1" stop-color="#0fc6a2"></stop></linearGradient><linearGradient id="linear-gradient-2" x1="1285.74" y1="532.88" x2="517.65" y2="1300.97" gradientTransform="translate(0 1826.21) scale(1 -1)" xlink:href="#linear-gradient"></linearGradient></defs><circle class="cls-3" cx="913.82" cy="912.83" r="683.74"></circle><path class="cls-1" d="m1055.03,525.25c127.25,0,230.71,103.46,230.71,230.71v306.67c0,127.25-103.46,230.71-230.71,230.71h-306.67c-127.25,0-230.71-103.46-230.71-230.71v-306.67c0-127.25,103.46-230.71,230.71-230.71h306.67Zm-306.67,72.22c-87.41,0-158.48,71.08-158.49,158.49v306.67c0,87.41,71.07,158.48,158.49,158.49h306.67c87.41,0,158.49-71.07,158.49-158.49v-306.67c0-87.41-71.07-158.49-158.49-158.49h-306.67Zm156.5,122.66c104.32,0,189.14,84.83,189.15,189.15,0,104.32-84.83,189.16-189.15,189.17-104.32,0-189.17-84.84-189.17-189.17,0-104.32,84.84-189.15,189.17-189.15Zm0,67.91c-66.78,0-121.23,54.46-121.23,121.23,0,66.78,54.46,121.23,121.23,121.23,66.77,0,121.23-54.46,121.23-121.23,0-66.77-54.46-121.23-121.23-121.23Zm200.32-125.52c24.94,0,45,20.07,45,45s-20.07,44.99-45,44.99c-24.93,0-44.98-20.06-44.99-44.99,0-24.93,20.06-45,44.99-45Z"></path><path class="cls-2" d="m1055.03,525.25c127.25,0,230.71,103.46,230.71,230.71v306.67c0,127.25-103.46,230.71-230.71,230.71h-306.67c-127.25,0-230.71-103.46-230.71-230.71v-306.67c0-127.25,103.46-230.71,230.71-230.71h306.67Zm-306.67,72.22c-87.41,0-158.48,71.08-158.49,158.49v306.67c0,87.41,71.07,158.48,158.49,158.49h306.67c87.41,0,158.49-71.07,158.49-158.49v-306.67c0-87.41-71.07-158.49-158.49-158.49h-306.67Zm156.5,122.66c104.32,0,189.14,84.83,189.15,189.15,0,104.32-84.83,189.16-189.15,189.17-104.32,0-189.17-84.84-189.17-189.17,0-104.32,84.84-189.15,189.17-189.15Zm0,67.91c-66.78,0-121.23,54.46-121.23,121.23,0,66.78,54.46,121.23,121.23,121.23,66.77,0,121.23-54.46,121.23-121.23,0-66.77-54.46-121.23-121.23-121.23Zm200.32-125.52c24.94,0,45,20.07,45,45s-20.07,44.99-45,44.99c-24.93,0-44.98-20.06-44.99-44.99,0-24.93,20.06-45,44.99-45Z"></path></svg>