<svg xmlns="http://www.w3.org/2000/svg" xmlns:xlink="http://www.w3.org/1999/xlink" id="Layer_1" data-name="Layer 1" viewBox="0 0 1825.66 1825.66"><defs><style>      .cls-1 {        fill: url(#linear-gradient-2);        stroke-width: 0px;      }      .cls-2 {        fill: none;        stroke: url(#linear-gradient);        stroke-miterlimit: 10;        stroke-width: 34.56px;      }    </style><linearGradient id="linear-gradient" x1="1314.97" y1="1487.81" x2="512.68" y2="337.86" gradientUnits="userSpaceOnUse"><stop offset="0" stop-color="#047ada"></stop><stop offset="1" stop-color="#0fc6a2"></stop></linearGradient><linearGradient id="linear-gradient-2" x1="1269.75" y1="591.09" x2="545.49" y2="1220.88" gradientTransform="translate(0 1826.21) scale(1 -1)" xlink:href="#linear-gradient"></linearGradient></defs><circle class="cls-2" cx="913.82" cy="912.83" r="683.74"></circle><path class="cls-1" d="m1057.79,547.03c-.2,0-1.53,12.04,1.65,30.65h-.16c3.81,22.42,14.15,54.44,41.82,86,11.06,11.92,23.53,22.48,37.12,31.44,4.67,3.03,9.49,5.83,14.44,8.38,32.24,16.02,63.73,20.9,79.24,19.22v124.73s-44.26-1.84-77.11-10.52c-45.78-12.21-75.12-30.95-75.12-30.95-.11-.07-20.31-13.39-21.89-14.34v257.75c0,14.33-3.82,50.18-15.23,80.07-10,25.56-24.28,49.23-42.26,70-.08.1-28.21,34.8-77.56,58.1-44.56,21.05-83.8,20.58-95.51,21.05-.8.03-68.03,2.47-128.69-38.61l-.3-.31v.31c-20.63-14.35-39.04-31.66-54.61-51.35-19.31-24.55-31.16-53.68-34.23-62.21v-.31c-4.86-14.5-15.05-49.57-13.52-83.42,2.43-59.62,22.5-96.36,27.83-105.51,13.98-25.08,32.24-47.54,53.97-66.36,24.79-20.72,53.64-36.08,84.69-45.13,31.06-9.06,63.66-11.61,95.76-7.47l-.16,127.94c-10.57-3.43-21.63-5.19-32.74-5.18-58.73,0-106.33,47.75-106.33,106.7,0,58.95,47.6,106.68,106.33,106.68,18.29.02,36.28-4.7,52.17-13.71,15.25-8.63,28.13-20.88,37.52-35.64,9.39-14.77,15-31.62,16.33-49.05v-.26c.07-.36.09-.73.09-1.08.05-.85.12-1.6.12-2.39.27-6.37.26-12.82.26-19.34v-485.85h126.08Z"></path></svg>