<svg xmlns="http://www.w3.org/2000/svg" xmlns:xlink="http://www.w3.org/1999/xlink" id="Layer_1" data-name="Layer 1" viewBox="0 0 1825.66 1825.66"><defs><style>      .cls-1 {        fill: url(#linear-gradient-2);        stroke-width: 0px;      }      .cls-2 {        fill: none;        stroke: url(#linear-gradient);        stroke-miterlimit: 10;        stroke-width: 34.56px;      }    </style><linearGradient id="linear-gradient" x1="1314.97" y1="1487.81" x2="512.68" y2="337.86" gradientUnits="userSpaceOnUse"><stop offset="0" stop-color="#047ada"></stop><stop offset="1" stop-color="#0fc6a2"></stop></linearGradient><linearGradient id="linear-gradient-2" x1="1205.75" y1="523.95" x2="523.03" y2="1203.49" gradientTransform="translate(0 1826.21) scale(1 -1)" xlink:href="#linear-gradient"></linearGradient></defs><circle class="cls-2" cx="913.82" cy="912.83" r="683.74"></circle><path class="cls-1" d="m915.22,571.47c90.5,0,175.49,35.21,239.37,99.18v.11c63.88,63.88,99,148.86,99,239.27-.09,186.51-151.86,338.29-338.37,338.29h-.09c-56.6,0-112.27-14.2-161.67-41.19l-179.41,47.07,48-175.31c-29.6-51.37-45.19-109.56-45.19-169.14.1-186.51,151.85-338.27,338.36-338.27Zm.09,57.16c-155.12,0-281.39,126.08-281.4,281.11-.09,53.14,14.85,104.9,42.97,149.63l6.72,10.64-28.38,103.77,106.47-27.92,10.26,6.06c43.24,25.68,92.75,39.23,143.18,39.23h.09c154.94,0,281.22-126.09,281.22-281.13.09-75.18-29.15-145.79-82.29-198.93-53.14-53.14-123.75-82.46-198.84-82.46Zm-120.01,124.86c5.7,0,11.31,0,16.25.28,5.23.19,12.23-1.95,19.05,14.48,7,16.89,23.89,58.42,26.05,62.76,2.15,4.29,3.55,9.25.75,14.85-2.89,5.6-4.29,9.16-8.48,14.1-4.2,4.95-8.89,11.02-12.72,14.85-4.3,4.2-8.68,8.79-3.74,17.29,4.95,8.5,21.95,36.15,47.07,58.56,32.31,28.76,59.49,37.73,67.99,41.93,8.41,4.2,13.37,3.45,18.32-2.15,4.95-5.7,21.2-24.65,26.8-33.15,5.7-8.4,11.3-7.01,19.05-4.21,7.75,2.8,49.31,23.25,57.82,27.46l-.19.09c8.5,4.29,14.1,6.36,16.25,9.9,2.05,3.46,2.06,20.45-4.94,40.16-7.01,19.71-40.82,37.75-57.07,40.17-14.57,2.15-32.97,3.08-53.23-3.36-12.23-3.92-28.02-9.17-48.19-17.86-84.8-36.61-140.19-122.07-144.39-127.67-4.31-5.62-34.55-45.86-34.55-87.41s21.84-62.01,29.59-70.51c7.75-8.4,16.82-10.56,22.51-10.56Z"></path></svg>